{"title":"The Expendables 3 2014  XviD DVDSCR-FWOLF","uid":10852061,"size":1753932526,"categoryP":"video","categoryS":"movies","magnet":"?xt=urn:btih:605da2fc25f489f1ab0eca7821ba6e8ec3283f7e&amp;dn=The+Expendables+3+2014++XviD+DVDSCR-FWOLF&amp;tr=udp%3A%2F%2Ftracker.openbittorrent.com%3A80&amp;tr=udp%3A%2F%2Fopen.demonii.com%3A1337&amp;tr=udp%3A%2F%2Ftracker.coppersurfer.tk%3A6969&amp;tr=udp%3A%2F%2Fexodus.desync.com%3A6969","seeders":18,"leechers":4,"uploader":"sakhslitsa","files":3,"time":1408816828,"description":" &lt;a href=&quot;http://www.imdb.com/title/tt2333784/&quot; rel=&quot;nofollow&quot; target=&quot;_NEW&quot;&gt;http://www.imdb.com/title/tt2333784/&lt;/a&gt;\n\n\nFormat : AVI\nFormat/Info : Audio Video Interleave\nFile size : 1.62 GiB\nDuration : 2h 6mn\nOverall bit rate : 1 832 Kbps\n\nVideo\nID : 0\nFormat : MPEG-4 Visual\nFormat profile : Advanced Simple@L5\nFormat settings, BVOP : 2\nFormat settings, QPel : Yes\nFormat settings, GMC : No warppoints\nFormat settings, Matrix : Default (H.263)\nMuxing mode : Packed bitstream\nCodec ID : XVID\nCodec ID/Hint : XviD\nDuration : 2h 6mn\nBit rate : 1 568 Kbps\nWidth : 720 pixels\nHeight : 304 pixels\nDisplay aspect ratio : 2.35:1\nFrame rate : 23.976 fps\nColor space : YUV\nChroma subsampling : 4:2:0\nBit depth : 8 bits\nScan type : Progressive\nCompression mode : Lossy\nBits/(Pixel*Frame) : 0.299\nStream size : 1.38 GiB (86%)\nWriting library : XviD 64\n\nAudio\nID : 1\nFormat : AC-3\nFormat/Info : Audio Coding 3\nMode extension : CM (complete main)\nFormat settings, Endianness : Big\nCodec ID : 2000\nDuration : 2h 6mn\nBit rate mode : Constant\nBit rate : 256 Kbps\nChannel(s) : 2 channels\nChannel positions : Front: L R\nSampling rate : 44.1 KHz\nBit depth : 16 bits\nCompression mode : Lossy\nStream size : 231 MiB (14%)\nAlignment : Aligned on interleaves\nInterleave, duration : 70 ms (1.67 video frames)\nInterleave, preload duration : 209 ms\nTitle : English\n\nText\nID : 2\nFormat : SubRip\nDuration : 2h 6mn\nBit rate : 103 bps\nCompression mode : Lossless\nStream size : 95.4 KiB (0%)\n\n\n\nEncoded....................FWOLF\n\nSample.....................Yes\n\n\nGreetz To: PsiX | Blacksheep | CFR | tomcat-12...\n.....and all P2P Encoders and Groups.....\n\n &lt;a href=&quot;\nhttp://s2.postimg.org/wpy8ezwvt/image.png&quot; rel=&quot;nofollow&quot; target=&quot;_NEW&quot;&gt;\nhttp://s2.postimg.org/wpy8ezwvt/image.png&lt;/a&gt;\n &lt;a href=&quot;\nhttp://s3.postimg.org/ud6qyjjdf/000.png&quot; rel=&quot;nofollow&quot; target=&quot;_NEW&quot;&gt;\nhttp://s3.postimg.org/ud6qyjjdf/000.png&lt;/a&gt;\n &lt;a href=&quot;\nhttp://s1.postimg.org/np6h0wawf/image.png&quot; rel=&quot;nofollow&quot; target=&quot;_NEW&quot;&gt;\nhttp://s1.postimg.org/np6h0wawf/image.png&lt;/a&gt;","torrent":{"xt":"urn:btih:605da2fc25f489f1ab0eca7821ba6e8ec3283f7e","amp;dn":"The+Expendables+3+2014++XviD+DVDSCR-FWOLF","amp;tr":["udp%3A%2F%2Ftracker.openbittorrent.com%3A80","udp%3A%2F%2Fopen.demonii.com%3A1337","udp%3A%2F%2Ftracker.coppersurfer.tk%3A6969","udp%3A%2F%2Fexodus.desync.com%3A6969"],"infoHash":"605da2fc25f489f1ab0eca7821ba6e8ec3283f7e","infoHashBuffer":{"type":"Buffer","data":[96,93,162,252,37,244,137,241,171,14,202,120,33,186,110,142,195,40,63,126]},"announce":[],"urlList":[]}}